<svg width="32" height="39" viewBox="0 0 32 39" fill="none" xmlns="http://www.w3.org/2000/svg">
<path d="M16 0C7.00377 0 0 3.56226 0 8.09057V15.5774V23.0642V30.5509C0 35.0792 7.00377 38.6415 16 38.6415C24.9962 38.6415 32 35.0792 32 30.5509V23.0642V15.5774V8.09057C32 3.56226 24.9962 0 16 0ZM16 1.20755C24.0302 1.20755 30.7925 4.34717 30.7925 8.09057C30.7925 11.834 24.0302 14.9736 16 14.9736C7.96981 14.9736 1.20755 11.834 1.20755 8.09057C1.20755 4.34717 7.96981 1.20755 16 1.20755ZM30.7925 26.2038V30.5509C30.7925 34.2943 24.0302 37.434 16 37.434C7.96981 37.434 1.20755 34.2943 1.20755 30.5509V26.2038C1.3283 26.3849 1.50943 26.5057 1.63019 26.6868C1.69057 26.7472 1.69057 26.7472 1.75094 26.8075C1.8717 26.9283 2.05283 27.1094 2.17359 27.2302L2.23396 27.2906C2.41509 27.4113 2.59623 27.5925 2.77736 27.7132C2.83774 27.7736 2.89811 27.7736 2.89811 27.834C3.07925 27.9547 3.26038 28.0755 3.44151 28.1962L3.50189 28.2566C3.7434 28.3774 3.92453 28.4981 4.16604 28.6189C4.22642 28.6792 4.28679 28.6792 4.34717 28.7396C4.58868 28.8604 4.76981 28.9811 5.01132 29.0415C5.01132 29.0415 5.0717 29.0415 5.0717 29.1019C5.31321 29.2226 5.55472 29.3434 5.8566 29.4038C5.91698 29.4038 5.97736 29.4642 6.03774 29.4642C6.27925 29.5849 6.52075 29.6453 6.82264 29.766H6.88302C7.18491 29.8868 7.42641 29.9472 7.7283 30.0679C7.78868 30.0679 7.84906 30.1283 7.96981 30.1283C8.2717 30.1887 8.51321 30.3094 8.81509 30.3698H8.87547C9.17736 30.4302 9.47925 30.4906 9.84151 30.5509C9.90189 30.5509 10.0226 30.6113 10.083 30.6113C10.3849 30.6717 10.6868 30.7321 11.0491 30.7925H11.1094C11.4717 30.8528 11.7736 30.9132 12.1358 30.9132C12.1962 30.9132 12.317 30.9132 12.3774 30.9132C12.7396 30.9736 13.0415 30.9736 13.4038 31.034C13.766 31.034 14.1283 31.0943 14.4906 31.0943C14.6113 31.0943 14.6717 31.0943 14.7925 31.0943C15.1547 31.0943 15.517 31.0943 15.9396 31.0943C16.3623 31.0943 16.6642 31.0943 17.0868 31.0943C17.2075 31.0943 17.2679 31.0943 17.3887 31.0943C17.7509 31.0943 18.1132 31.034 18.4755 31.034C18.8377 31.034 19.2 30.9736 19.5019 30.9132C19.5623 30.9132 19.683 30.9132 19.7434 30.9132C20.1057 30.8528 20.4075 30.8528 20.7698 30.7925H20.8302C21.1321 30.7321 21.4943 30.6717 21.7962 30.6113C21.8566 30.6113 21.9774 30.5509 22.0377 30.5509C22.3396 30.4906 22.7019 30.4302 23.0038 30.3698H23.0642C23.366 30.3094 23.6679 30.2491 23.9094 30.1283C23.9698 30.1283 24.0302 30.0679 24.1509 30.0679C24.4528 30.0075 24.7547 29.8868 24.9962 29.766H25.0566C25.2981 29.7057 25.6 29.5849 25.8415 29.4642C25.9019 29.4642 25.9623 29.4038 26.0226 29.4038C26.2642 29.283 26.566 29.1623 26.8075 29.1019C26.8075 29.1019 26.8679 29.1019 26.8679 29.0415C27.1094 28.9208 27.2906 28.8 27.5321 28.7396C27.5925 28.6792 27.6528 28.6792 27.7132 28.6189C27.9547 28.4981 28.1962 28.3774 28.3774 28.2566L28.4377 28.1962C28.6189 28.0755 28.8 27.9547 28.9811 27.834C29.0415 27.7736 29.1019 27.7736 29.1019 27.7132C29.283 27.5925 29.4642 27.4113 29.6453 27.2906L29.7057 27.2302C29.8868 27.1094 30.0075 26.9887 30.1283 26.8075C30.1887 26.7472 30.1887 26.7472 30.2491 26.6868C30.5509 26.566 30.6717 26.3849 30.7925 26.2038ZM30.7925 18.717V23.0642C30.7925 26.8075 24.0302 29.9472 16 29.9472C7.96981 29.9472 1.20755 26.8075 1.20755 23.0642V18.717C1.3283 18.8981 1.50943 19.0189 1.63019 19.2C1.69057 19.2604 1.69057 19.2604 1.75094 19.3208C1.8717 19.4415 2.05283 19.6226 2.17359 19.7434L2.23396 19.8038C2.41509 19.9245 2.59623 20.1057 2.77736 20.2264C2.83774 20.2868 2.89811 20.2868 2.89811 20.3472C3.07925 20.4679 3.26038 20.5887 3.44151 20.7094L3.50189 20.7698C3.7434 20.8906 3.92453 21.0113 4.16604 21.1321C4.22642 21.1925 4.28679 21.1925 4.34717 21.2528C4.58868 21.3736 4.76981 21.4943 5.01132 21.5547C5.01132 21.5547 5.0717 21.5547 5.0717 21.6151C5.31321 21.7358 5.55472 21.8566 5.8566 21.917C5.91698 21.917 5.97736 21.9774 6.03774 21.9774C6.27925 22.0981 6.52075 22.1585 6.82264 22.2792H6.88302C7.18491 22.4 7.42641 22.4604 7.7283 22.5811C7.78868 22.5811 7.84906 22.6415 7.96981 22.6415C8.2717 22.7019 8.51321 22.8226 8.81509 22.883H8.87547C9.17736 22.9434 9.47925 23.0038 9.84151 23.0642C9.90189 23.0642 10.0226 23.1245 10.083 23.1245C10.3849 23.1849 10.6868 23.2453 11.0491 23.3057H11.1094C11.4717 23.366 11.7736 23.4264 12.1358 23.4264C12.1962 23.4264 12.317 23.4264 12.3774 23.4264C12.7396 23.4868 13.0415 23.4868 13.4038 23.5472C13.766 23.5472 14.1283 23.6075 14.4906 23.6075C14.6113 23.6075 14.6717 23.6075 14.7925 23.6075C15.1547 23.6075 15.517 23.6075 15.9396 23.6075C16.3623 23.6075 16.6642 23.6075 17.0868 23.6075C17.2075 23.6075 17.2679 23.6075 17.3887 23.6075C17.7509 23.6075 18.1132 23.5472 18.4755 23.5472C18.8377 23.5472 19.2 23.4868 19.5019 23.4264C19.5623 23.4264 19.683 23.4264 19.7434 23.4264C20.1057 23.366 20.4075 23.366 20.7698 23.3057H20.8302C21.1321 23.2453 21.4943 23.1849 21.7962 23.1245C21.8566 23.1245 21.9774 23.0642 22.0377 23.0642C22.3396 23.0038 22.7019 22.9434 23.0038 22.883H23.0642C23.366 22.8226 23.6679 22.7623 23.9094 22.6415C23.9698 22.6415 24.0302 22.5811 24.1509 22.5811C24.4528 22.5208 24.7547 22.4 24.9962 22.2792H25.0566C25.2981 22.2189 25.6 22.0981 25.8415 21.9774C25.9019 21.9774 25.9623 21.917 26.0226 21.917C26.2642 21.7962 26.566 21.6755 26.8075 21.6151C26.8075 21.6151 26.8679 21.6151 26.8679 21.5547C27.1094 21.434 27.2906 21.3132 27.5321 21.2528C27.5925 21.1925 27.6528 21.1925 27.7132 21.1321C27.9547 21.0113 28.1962 20.8906 28.3774 20.7698L28.4377 20.7094C28.6189 20.5887 28.8 20.4679 28.9811 20.3472C29.0415 20.2868 29.1019 20.2868 29.1019 20.2264C29.283 20.1057 29.4642 19.9245 29.6453 19.8038L29.7057 19.7434C29.8868 19.6226 30.0075 19.5019 30.1283 19.3208C30.1887 19.2604 30.1887 19.2604 30.2491 19.2C30.5509 19.0792 30.6717 18.8981 30.7925 18.717ZM30.7925 11.2302V15.5774C30.7925 19.3208 24.0302 22.4604 16 22.4604C7.96981 22.4604 1.20755 19.3208 1.20755 15.5774V11.2302C1.3283 11.4113 1.50943 11.5321 1.63019 11.7132C1.69057 11.7736 1.69057 11.7736 1.75094 11.834C1.8717 11.9547 2.05283 12.1358 2.17359 12.2566L2.23396 12.317C2.41509 12.4377 2.59623 12.6189 2.77736 12.7396C2.83774 12.8 2.89811 12.8 2.89811 12.8604C3.07925 12.9811 3.26038 13.1019 3.44151 13.2226C3.44151 13.2226 3.50189 13.2226 3.50189 13.283C3.7434 13.4038 3.92453 13.5245 4.16604 13.6453C4.22642 13.7057 4.28679 13.7057 4.34717 13.766C4.58868 13.8868 4.76981 14.0075 5.01132 14.1283C5.01132 14.1283 5.0717 14.1283 5.0717 14.1887C5.31321 14.3094 5.55472 14.4302 5.8566 14.5509C5.91698 14.5509 5.97736 14.6113 6.03774 14.6113C6.27925 14.7321 6.52075 14.7925 6.82264 14.9132H6.88302C7.18491 15.034 7.48679 15.0943 7.7283 15.2151C7.78868 15.2151 7.84906 15.2755 7.96981 15.2755C8.2717 15.3358 8.51321 15.4566 8.81509 15.517H8.87547C9.17736 15.5774 9.47925 15.6377 9.84151 15.6981C9.90189 15.6981 10.0226 15.7585 10.083 15.7585C10.3849 15.8189 10.6868 15.8792 11.0491 15.9396H11.1094C11.4717 16 11.7736 16.0604 12.1358 16.0604C12.1962 16.0604 12.317 16.0604 12.3774 16.0604C12.7396 16.1208 13.0415 16.1208 13.4038 16.1811C13.766 16.1811 14.1283 16.2415 14.4906 16.2415C14.6113 16.2415 14.6717 16.2415 14.7925 16.2415C15.1547 16.2415 15.517 16.2415 15.9396 16.2415C16.3623 16.2415 16.6642 16.2415 17.0868 16.2415C17.2075 16.2415 17.2679 16.2415 17.3887 16.2415C17.7509 16.2415 18.1132 16.1811 18.4755 16.1811C18.8377 16.1811 19.2 16.1208 19.5019 16.0604C19.5623 16.0604 19.683 16.0604 19.7434 16.0604C20.1057 16 20.4075 16 20.7698 15.9396H20.8302C21.1321 15.8792 21.4943 15.8189 21.7962 15.7585C21.8566 15.7585 21.9774 15.6981 22.0377 15.6981C22.3396 15.6377 22.7019 15.5774 23.0038 15.517H23.0642C23.366 15.4566 23.6679 15.3962 23.9094 15.2755C23.9698 15.2755 24.0302 15.2151 24.1509 15.2151C24.4528 15.1547 24.7547 15.034 24.9962 14.9132H25.0566C25.2981 14.7925 25.6 14.7321 25.8415 14.6113C25.9019 14.6113 25.9623 14.5509 26.0226 14.5509C26.2642 14.4302 26.566 14.3094 26.8075 14.1887C26.8075 14.1887 26.8679 14.1887 26.8679 14.1283C27.1094 14.0075 27.3509 13.8868 27.5321 13.766C27.5925 13.766 27.6528 13.7057 27.7132 13.6453C27.9547 13.5245 28.1962 13.4038 28.3774 13.283C28.3774 13.283 28.4377 13.283 28.4377 13.2226C28.6189 13.1019 28.8 12.9811 28.9811 12.8604C29.0415 12.8 29.1019 12.8 29.1019 12.7396C29.283 12.6189 29.4642 12.4377 29.6453 12.317L29.7057 12.2566C29.8868 12.1358 30.0075 11.9547 30.1283 11.834C30.1887 11.7736 30.1887 11.7736 30.2491 11.7132C30.5509 11.5925 30.6717 11.4113 30.7925 11.2302Z" fill="#BDBDC1"/>
<path d="M25.6 17.0264C25.4793 17.1472 25.4189 17.3283 25.4189 17.449C25.4189 17.6302 25.4793 17.7509 25.6 17.8717C25.7208 17.9924 25.8415 18.0528 26.0227 18.0528C26.2038 18.0528 26.3245 17.9924 26.4453 17.8717C26.5661 17.7509 26.6264 17.6302 26.6264 17.449C26.6264 17.2679 26.5661 17.1472 26.4453 17.0264C26.2642 16.7849 25.8415 16.7849 25.6 17.0264Z" fill="#BDBDC1"/>
<path d="M23.0641 17.9924C22.9434 18.1132 22.883 18.234 22.883 18.4151C22.883 18.5962 22.9434 18.717 23.0641 18.8377C23.1849 18.9585 23.3056 19.0189 23.4868 19.0189C23.6679 19.0189 23.7887 18.9585 23.9094 18.8377C24.0302 18.717 24.0905 18.5962 24.0905 18.4151C24.0905 18.234 24.0302 18.1132 23.9094 17.9924C23.6679 17.7509 23.2453 17.7509 23.0641 17.9924Z" fill="#BDBDC1"/>
<path d="M20.2264 18.5962C20.1057 18.717 20.0453 18.8377 20.0453 19.0189C20.0453 19.2 20.1057 19.3208 20.2264 19.4415C20.3472 19.5623 20.4679 19.6226 20.6491 19.6226C20.8302 19.6226 20.9509 19.5623 21.0717 19.4415C21.1925 19.3208 21.2528 19.2 21.2528 19.0189C21.2528 18.8377 21.1925 18.717 21.0717 18.5962C20.8906 18.3547 20.4679 18.3547 20.2264 18.5962Z" fill="#BDBDC1"/>
<path d="M25.6 24.634C25.4793 24.7547 25.4189 24.8755 25.4189 25.0566C25.4189 25.2377 25.4793 25.3585 25.6 25.4792C25.7208 25.6 25.8415 25.6604 26.0227 25.6604C26.2038 25.6604 26.3245 25.6 26.4453 25.4792C26.5661 25.3585 26.6264 25.2377 26.6264 25.0566C26.6264 24.8755 26.5661 24.7547 26.4453 24.634C26.2642 24.3924 25.8415 24.3924 25.6 24.634Z" fill="#BDBDC1"/>
<path d="M23.0641 25.5396C22.9434 25.6604 22.883 25.7811 22.883 25.9623C22.883 26.1434 22.9434 26.2642 23.0641 26.3849C23.1849 26.5057 23.3056 26.566 23.4868 26.566C23.6679 26.566 23.7887 26.5057 23.9094 26.3849C24.0302 26.2642 24.0905 26.083 24.0905 25.9623C24.0905 25.7811 24.0302 25.6604 23.9094 25.5396C23.6679 25.3585 23.2453 25.3585 23.0641 25.5396Z" fill="#BDBDC1"/>
<path d="M21.0717 26.2038C20.8302 25.9623 20.4679 25.9623 20.2264 26.2038C20.1057 26.3245 20.0453 26.4453 20.0453 26.6264C20.0453 26.8075 20.1057 26.9283 20.2264 27.0491C20.2264 27.1094 20.2868 27.1094 20.2868 27.1094C20.3472 27.1094 20.3472 27.1698 20.4076 27.1698C20.4679 27.1698 20.4679 27.1698 20.5283 27.2302C20.5887 27.2302 20.5887 27.2302 20.6491 27.2302C20.8302 27.2302 20.9509 27.1698 21.0717 27.0491C21.1321 26.9887 21.1925 26.9283 21.1925 26.8679C21.2528 26.8075 21.2528 26.6868 21.2528 26.6264C21.2528 26.566 21.2528 26.4453 21.1925 26.3849C21.1925 26.3245 21.1321 26.2642 21.0717 26.2038Z" fill="#BDBDC1"/>
<path d="M25.6 32.2415C25.4793 32.3623 25.4189 32.483 25.4189 32.6641C25.4189 32.8453 25.4793 32.966 25.6 33.0868C25.7208 33.2075 25.8415 33.2679 26.0227 33.2679C26.2038 33.2679 26.3245 33.2075 26.4453 33.0868C26.5661 32.966 26.6264 32.8453 26.6264 32.6641C26.6264 32.483 26.5661 32.3623 26.4453 32.2415C26.2642 32 25.8415 32 25.6 32.2415Z" fill="#BDBDC1"/>
<path d="M23.9094 33.1472C23.6679 32.9057 23.3056 32.9057 23.0641 33.1472C23.0037 33.2075 22.9434 33.2679 22.9434 33.3283C22.883 33.3887 22.883 33.5094 22.883 33.5698C22.883 33.7509 22.9434 33.8717 23.0641 33.9924C23.1849 34.1132 23.3056 34.1736 23.4868 34.1736C23.6679 34.1736 23.7887 34.1132 23.9094 33.9924C24.0302 33.8717 24.0905 33.7509 24.0905 33.5698C24.0905 33.5094 24.0905 33.3887 24.0302 33.3283C23.9698 33.2679 23.9698 33.2075 23.9094 33.1472Z" fill="#BDBDC1"/>
<path d="M20.5283 33.6302C20.4679 33.6302 20.4679 33.6302 20.4076 33.6906C20.3472 33.6906 20.3472 33.6906 20.2868 33.7509L20.2264 33.8113C20.1057 33.9321 20.0453 34.1132 20.0453 34.234C20.0453 34.3547 20.1057 34.5358 20.2264 34.6566L20.2868 34.717C20.3472 34.717 20.3472 34.7774 20.4076 34.7774C20.4679 34.7774 20.4679 34.8377 20.5283 34.8377C20.5887 34.8377 20.5887 34.8377 20.6491 34.8377C20.8302 34.8377 20.9509 34.7774 21.0717 34.6566C21.1321 34.5962 21.1925 34.5358 21.1925 34.4755C21.2528 34.4151 21.2528 34.2943 21.2528 34.234C21.2528 34.0528 21.1925 33.9321 21.0717 33.8113C20.9509 33.6906 20.7698 33.6302 20.5283 33.6302Z" fill="#BDBDC1"/>
</svg>
