<svg width="32" height="34" viewBox="0 0 32 34" fill="none" xmlns="http://www.w3.org/2000/svg">
<path d="M16.8531 5.6305V0H15.1469V5.6305C14.1827 5.8263 13.3158 6.34943 12.6931 7.11127C12.0704 7.8731 11.7302 8.82678 11.7302 9.81071C11.7302 10.7946 12.0704 11.7483 12.6931 12.5102C13.3158 13.272 14.1827 13.7951 15.1469 13.9909V33.6977H16.8531V13.9909C17.8174 13.7951 18.6843 13.272 19.307 12.5102C19.9297 11.7483 20.2698 10.7946 20.2698 9.81071C20.2698 8.82678 19.9297 7.8731 19.307 7.11127C18.6843 6.34943 17.8174 5.8263 16.8531 5.6305ZM16 12.37C15.4938 12.37 14.999 12.2199 14.5781 11.9387C14.1573 11.6575 13.8292 11.2578 13.6355 10.7901C13.4418 10.3225 13.3911 9.80787 13.4899 9.31141C13.5886 8.81495 13.8324 8.35893 14.1903 8.001C14.5482 7.64307 15.0043 7.39932 15.5007 7.30057C15.9972 7.20182 16.5118 7.2525 16.9794 7.44621C17.4471 7.63992 17.8468 7.96795 18.128 8.38883C18.4092 8.80971 18.5593 9.30453 18.5593 9.81071C18.5593 10.4895 18.2897 11.1405 17.8097 11.6204C17.3298 12.1004 16.6788 12.37 16 12.37Z" fill="#BDBDC1"/>
<path d="M28.5833 19.7067V0H26.8771V19.7067C25.9128 19.9025 25.0459 20.4257 24.4232 21.1875C23.8005 21.9493 23.4604 22.903 23.4604 23.8869C23.4604 24.8709 23.8005 25.8246 24.4232 26.5864C25.0459 27.3482 25.9128 27.8714 26.8771 28.0672V33.6977H28.5833V28.0672C29.5476 27.8714 30.4145 27.3482 31.0371 26.5864C31.6598 25.8246 32 24.8709 32 23.8869C32 22.903 31.6598 21.9493 31.0371 21.1875C30.4145 20.4257 29.5476 19.9025 28.5833 19.7067ZM27.7302 26.4463C27.224 26.4463 26.7292 26.2962 26.3083 26.0149C25.8874 25.7337 25.5594 25.334 25.3657 24.8664C25.172 24.3987 25.1213 23.8841 25.2201 23.3877C25.3188 22.8912 25.5626 22.4352 25.9205 22.0772C26.2784 21.7193 26.7344 21.4756 27.2309 21.3768C27.7274 21.2781 28.2419 21.3287 28.7096 21.5224C29.1773 21.7162 29.577 22.0442 29.8582 22.4651C30.1394 22.8859 30.2895 23.3808 30.2895 23.8869C30.2895 24.5657 30.0199 25.2167 29.5399 25.6967C29.0599 26.1766 28.409 26.4463 27.7302 26.4463Z" fill="#BDBDC1"/>
<path d="M5.12291 19.7067V0H3.4167V19.7067C2.45244 19.9025 1.58553 20.4257 0.962844 21.1875C0.34016 21.9493 0 22.903 0 23.8869C0 24.8709 0.34016 25.8246 0.962844 26.5864C1.58553 27.3482 2.45244 27.8714 3.4167 28.0672V33.6977H5.12291V28.0672C6.08716 27.8714 6.95408 27.3482 7.57676 26.5864C8.19944 25.8246 8.53961 24.8709 8.53961 23.8869C8.53961 22.903 8.19944 21.9493 7.57676 21.1875C6.95408 20.4257 6.08716 19.9025 5.12291 19.7067ZM4.2698 26.4463C3.76362 26.4463 3.2688 26.2962 2.84792 26.0149C2.42705 25.7337 2.09901 25.334 1.9053 24.8664C1.71159 24.3987 1.66091 23.8841 1.75966 23.3877C1.85841 22.8912 2.10217 22.4352 2.46009 22.0772C2.81802 21.7193 3.27405 21.4756 3.7705 21.3768C4.26696 21.2781 4.78156 21.3287 5.24921 21.5224C5.71686 21.7162 6.11657 22.0442 6.3978 22.4651C6.67902 22.8859 6.82912 23.3808 6.82912 23.8869C6.82912 24.5657 6.55948 25.2167 6.07951 25.6967C5.59955 26.1766 4.94858 26.4463 4.2698 26.4463Z" fill="#BDBDC1"/>
</svg>
