<svg width="32" height="27" viewBox="0 0 32 27" fill="none" xmlns="http://www.w3.org/2000/svg">
<path d="M31.8353 24.8698L25.5205 14.043C25.3018 13.6696 24.9178 13.4509 24.4912 13.4509C24.0591 13.4509 23.6751 13.6749 23.4618 14.043L17.1417 24.8698C16.923 25.2432 16.923 25.6912 17.1363 26.0645C17.3497 26.4379 17.739 26.6619 18.171 26.6619H30.8059C31.238 26.6619 31.6273 26.4379 31.8406 26.0645C32.054 25.6912 32.054 25.2485 31.8353 24.8698ZM30.918 25.5365C30.902 25.5685 30.8646 25.6005 30.8059 25.6005H18.171C18.1124 25.6005 18.0804 25.5685 18.059 25.5365C18.043 25.5099 18.027 25.4619 18.059 25.4085L24.3791 14.5763C24.4111 14.523 24.4538 14.5123 24.4912 14.5123C24.5232 14.5123 24.5712 14.523 24.6032 14.5763L30.9233 25.4085C30.9446 25.4619 30.934 25.5099 30.918 25.5365Z" fill="#BDBDC1"/>
<path d="M24.5339 17.067C24.2406 17.067 24.0005 17.307 24.0005 17.6004V21.8671C24.0005 22.1605 24.2406 22.4005 24.5339 22.4005C24.8272 22.4005 25.0672 22.1605 25.0672 21.8671V17.6004C25.0672 17.307 24.8272 17.067 24.5339 17.067Z" fill="#BDBDC1"/>
<path d="M24.1552 23.6218C24.0592 23.7232 24.0005 23.8618 24.0005 24.0005C24.0005 24.1392 24.0592 24.2778 24.1552 24.3792C24.2566 24.4752 24.3952 24.5338 24.5339 24.5338C24.6726 24.5338 24.8112 24.4752 24.9126 24.3792C25.0086 24.2778 25.0672 24.1392 25.0672 24.0005C25.0672 23.8618 25.0086 23.7232 24.9126 23.6218C24.7152 23.4245 24.3579 23.4245 24.1552 23.6218Z" fill="#BDBDC1"/>
<path d="M16.5337 20.8004H2.06938C4.49609 18.8804 9.96287 14.5176 12.7736 12.0536L13.5309 12.7256C14.0536 13.1896 14.7416 13.4456 15.467 13.4456C16.1923 13.4456 16.8857 13.1896 17.403 12.7256L29.8673 1.71737V16.1977C29.8673 16.491 30.1073 16.731 30.4006 16.731C30.694 16.731 30.934 16.491 30.934 16.1977V0.533344C30.934 0.528011 30.934 0.522677 30.934 0.522677C30.934 0.46401 30.9233 0.405342 30.902 0.346674C30.902 0.34134 30.8966 0.34134 30.8966 0.336007C30.8913 0.320007 30.8806 0.30934 30.8753 0.298673C30.854 0.256005 30.8273 0.213338 30.7953 0.181337C30.7793 0.165337 30.7686 0.15467 30.7526 0.13867C30.7206 0.112002 30.6833 0.0853351 30.646 0.0640013C30.63 0.0533344 30.614 0.048001 30.5926 0.0373341C30.5286 0.0160003 30.4646 0 30.4006 0H0.533344C0.469343 0 0.405342 0.0160003 0.346674 0.0373341C0.32534 0.0426676 0.30934 0.0533344 0.293339 0.0640013C0.256005 0.0853351 0.218671 0.106669 0.186671 0.13867C0.17067 0.149336 0.15467 0.160003 0.144003 0.176004C0.112002 0.213338 0.0853351 0.250672 0.0640013 0.293339C0.0533344 0.30934 0.048001 0.320007 0.0426675 0.336007C0.0426675 0.34134 0.0373341 0.34134 0.0373341 0.346674C0.0106669 0.400008 0.00533344 0.46401 0 0.522677C0 0.528011 0 0.528011 0 0.533344V21.3338V21.3391C0 21.3978 0.0106669 21.4511 0.0266672 21.5098C0.0266672 21.5151 0.0320007 21.5204 0.0373341 21.5258C0.0426675 21.5418 0.0533344 21.5578 0.0640013 21.5791C0.0853351 21.6164 0.106669 21.6538 0.13867 21.6858C0.15467 21.7018 0.165337 21.7178 0.186671 21.7285C0.218671 21.7551 0.256005 21.7818 0.293339 21.8031C0.30934 21.8138 0.32534 21.8245 0.346674 21.8298C0.405342 21.8511 0.469343 21.8671 0.533344 21.8671H16.5337C16.827 21.8671 17.067 21.6271 17.067 21.3338C17.067 21.0404 16.827 20.8004 16.5337 20.8004ZM1.06669 20.2351V1.71737L11.9682 11.3442C9.00285 13.931 3.24807 18.507 1.06669 20.2351ZM28.9926 1.06669L16.6937 11.9256C16.043 12.5069 14.891 12.5069 14.2403 11.9256L13.1843 10.9922C13.1789 10.9869 13.1789 10.9816 13.1789 10.9816C13.1683 10.9656 13.1469 10.9602 13.1363 10.9496L1.94137 1.06669H28.9926Z" fill="#BDBDC1"/>
</svg>
