<svg width="32" height="48" viewBox="0 0 32 48" fill="none" xmlns="http://www.w3.org/2000/svg">
<path d="M28.9524 47.2381H3.04762C1.37676 47.2366 0.00152381 45.8613 0 44.1905V9.90476C0.00152381 8.2339 1.37676 6.85866 3.04762 6.85714H9.14286C9.56114 6.85714 9.90476 7.20076 9.90476 7.61904C9.90476 8.03733 9.56114 8.38095 9.14286 8.38095H3.04762C2.21181 8.38171 1.52457 9.06895 1.52381 9.90476V44.1905C1.52457 45.0263 2.21181 45.7135 3.04762 45.7143H28.9524C29.7882 45.7135 30.4754 45.0263 30.4762 44.1905V9.90476C30.4754 9.06895 29.7882 8.38171 28.9524 8.38095H22.8571C22.4389 8.38095 22.0952 8.03733 22.0952 7.61904C22.0952 7.20076 22.4389 6.85714 22.8571 6.85714H28.9524C30.6232 6.85866 31.9985 8.2339 32 9.90476V44.1905C31.9985 45.8613 30.6232 47.2366 28.9524 47.2381Z" fill="#BDBDC1"/>
<path d="M22.8572 10.6667H9.14289C8.7246 10.6667 8.38098 10.323 8.38098 9.90476V5.33333C8.38098 4.91505 8.7246 4.57143 9.14289 4.57143H11.4286C11.4286 2.06324 13.4918 0 16 0C18.5082 0 20.5715 2.06324 20.5715 4.57143H22.8572C23.2755 4.57143 23.6191 4.91505 23.6191 5.33333V9.90476C23.6191 10.323 23.2755 10.6667 22.8572 10.6667ZM9.90479 9.14286H22.0953V6.09524H19.8096C19.3913 6.09524 19.0476 5.75162 19.0476 5.33333V4.57143C19.0476 2.89981 17.6716 1.52381 16 1.52381C14.3284 1.52381 12.9524 2.89981 12.9524 4.57143V5.33333C12.9524 5.75162 12.6088 6.09524 12.1905 6.09524H9.90479V9.14286Z" fill="#BDBDC1"/>
<path d="M16 5.33334C15.5817 5.33181 15.2381 4.98667 15.2381 4.56838C15.2381 4.36724 15.3173 4.17372 15.4591 4.03048C15.6023 3.88648 15.7966 3.80495 16 3.80495C16.4183 3.80495 16.7619 4.14934 16.7619 4.56686C16.7619 4.56838 16.7619 4.56991 16.7619 4.57143C16.7619 4.57372 16.7619 4.57676 16.7619 4.57905C16.7619 4.99276 16.4213 5.33334 16.0076 5.33334C16.0053 5.33334 16.0023 5.33334 16 5.33334Z" fill="#BDBDC1"/>
<path d="M25.9048 18.2857H13.7143C13.296 18.2857 12.9524 17.9421 12.9524 17.5238C12.9524 17.1055 13.296 16.7619 13.7143 16.7619H25.9048C26.3231 16.7619 26.6667 17.1055 26.6667 17.5238C26.6667 17.9421 26.3231 18.2857 25.9048 18.2857Z" fill="#BDBDC1"/>
<path d="M6.85714 19.0476C6.65523 19.0476 6.46094 18.9676 6.31847 18.8244L5.55656 18.0625C5.41942 17.9208 5.34247 17.7303 5.34247 17.533C5.34247 17.1154 5.68685 16.771 6.10437 16.771C6.30171 16.771 6.49218 16.848 6.6339 16.9851L6.85714 17.2084L8.60418 15.4613C8.7459 15.3242 8.93637 15.2472 9.13371 15.2472C9.55123 15.2472 9.89561 15.5916 9.89561 16.0091C9.89561 16.2065 9.81866 16.397 9.68152 16.5387L7.3958 18.8244C7.25333 18.9676 7.05904 19.0476 6.85714 19.0476Z" fill="#BDBDC1"/>
<path d="M25.9048 25.9048H13.7143C13.296 25.9048 12.9524 25.5611 12.9524 25.1429C12.9524 24.7246 13.296 24.381 13.7143 24.381H25.9048C26.3231 24.381 26.6667 24.7246 26.6667 25.1429C26.6667 25.5611 26.3231 25.9048 25.9048 25.9048Z" fill="#BDBDC1"/>
<path d="M6.85714 26.6667C6.65523 26.6667 6.46094 26.5867 6.31847 26.4434L5.55656 25.6815C5.41942 25.5398 5.34247 25.3493 5.34247 25.152C5.34247 24.7345 5.68685 24.3901 6.10437 24.3901C6.30171 24.3901 6.49218 24.467 6.6339 24.6042L6.85714 24.8274L8.60418 23.0804C8.7459 22.9432 8.93637 22.8663 9.13371 22.8663C9.55123 22.8663 9.89561 23.2107 9.89561 23.6282C9.89561 23.8255 9.81866 24.016 9.68152 24.1577L7.3958 26.4434C7.25333 26.5867 7.05904 26.6667 6.85714 26.6667Z" fill="#BDBDC1"/>
<path d="M25.9048 32.7619H13.7143C13.296 32.7619 12.9524 32.4183 12.9524 32C12.9524 31.5817 13.296 31.2381 13.7143 31.2381H25.9048C26.3231 31.2381 26.6667 31.5817 26.6667 32C26.6667 32.4183 26.3231 32.7619 25.9048 32.7619Z" fill="#BDBDC1"/>
<path d="M6.85714 33.5238C6.65523 33.5238 6.46094 33.4438 6.31847 33.3006L5.55656 32.5387C5.41942 32.397 5.34247 32.2065 5.34247 32.0091C5.34247 31.5916 5.68685 31.2472 6.10437 31.2472C6.30171 31.2472 6.49218 31.3242 6.6339 31.4613L6.85714 31.6846L8.60418 29.9375C8.7459 29.8004 8.93637 29.7234 9.13371 29.7234C9.55123 29.7234 9.89561 30.0678 9.89561 30.4853C9.89561 30.6827 9.81866 30.8731 9.68152 31.0149L7.3958 33.3006C7.25333 33.4438 7.05904 33.5238 6.85714 33.5238Z" fill="#BDBDC1"/>
<path d="M25.9048 39.619H13.7143C13.296 39.619 12.9524 39.2754 12.9524 38.8571C12.9524 38.4389 13.296 38.0952 13.7143 38.0952H25.9048C26.3231 38.0952 26.6667 38.4389 26.6667 38.8571C26.6667 39.2754 26.3231 39.619 25.9048 39.619Z" fill="#BDBDC1"/>
<path d="M6.85714 40.381C6.65523 40.381 6.46094 40.301 6.31847 40.1577L5.55656 39.3958C5.41942 39.2541 5.34247 39.0636 5.34247 38.8663C5.34247 38.4488 5.68685 38.1044 6.10437 38.1044C6.30171 38.1044 6.49218 38.1813 6.6339 38.3185L6.85714 38.5417L8.60418 36.7947C8.7459 36.6575 8.93637 36.5806 9.13371 36.5806C9.55123 36.5806 9.89561 36.925 9.89561 37.3425C9.89561 37.5398 9.81866 37.7303 9.68152 37.872L7.3958 40.1577C7.25333 40.301 7.05904 40.381 6.85714 40.381Z" fill="#BDBDC1"/>
</svg>
